<?xml version="1.0" encoding="UTF-8"?>
<svg width="18px" height="17px" viewBox="0 0 18 17" version="1.1" xmlns="http://www.w3.org/2000/svg" xmlns:xlink="http://www.w3.org/1999/xlink">
    <!-- Generator: Sketch 50.2 (55047) - http://www.bohemiancoding.com/sketch -->
    <title>actual size</title>
    <desc>Created with Sketch.</desc>
    <defs></defs>
    <g id="01" stroke="none" stroke-width="1" fill="none" fill-rule="evenodd">
        <g id="timer-fullscreen" transform="translate(-1484.000000, -30.000000)" fill="#1B1B1B">
            <g id="actual-size" transform="translate(1484.000000, 30.000000)">
                <path d="M13.1814352,5.27565562 C13.1814352,5.27565562 15.8338716,5.28204165 15.8338716,5.28204165 C16.0608061,5.27725213 16.2708889,5.42572723 16.3057155,5.67903959 C16.3057155,5.67903959 16.3051538,5.9520422 16.3051538,5.9520422 C16.2995366,6.16757057 16.1119225,6.34531496 15.8849881,6.35010448 C15.8849881,6.35010448 11.8569021,6.33360724 11.8569021,6.33360724 C11.8524084,6.33413941 11.8490381,6.33520375 11.845106,6.33520375 C11.845106,6.33520375 11.6400786,6.33999327 11.6400786,6.33999327 C11.5266114,6.34265411 11.4243786,6.30061278 11.3519169,6.23089866 C11.2783317,6.16224888 11.2513692,6.06592633 11.2541778,5.95789605 C11.2541778,5.95789605 11.2760848,5.76312227 11.2760848,5.76312227 C11.2760848,5.75939708 11.2609184,5.75620407 11.2609184,5.75247889 C11.2609184,5.75247889 11.2727145,1.91075216 11.2727145,1.91075216 C11.27777,1.69575595 11.4653841,1.56803544 11.6923185,1.56271375 C11.6923185,1.56271375 11.981042,1.56271375 11.981042,1.56271375 C12.2079764,1.55792423 12.3877264,1.74471549 12.382671,1.95971169 C12.382671,1.95971169 12.3675046,4.54126265 12.3675046,4.54126265 C12.3675046,4.54126265 17.0410055,0.155659381 17.0410055,0.155659381 C17.2606376,-0.0518864602 17.6162056,-0.0518864602 17.8352759,0.155659381 C18.054908,0.36373739 18.054908,0.700600255 17.8352759,0.908146096 C17.8352759,0.908146096 13.1814352,5.27565562 13.1814352,5.27565562 Z M11.3170903,10.7687022 C11.389552,10.6995203 11.4912231,10.6239523 11.6046904,10.6266131 C11.6046904,10.6266131 11.845106,10.6314027 11.845106,10.6314027 C11.8490381,10.6314027 11.8524084,10.632467 11.8569021,10.6329992 C11.8569021,10.6329992 15.8849881,10.6329992 15.8849881,10.6329992 C16.1119225,10.6377887 16.2995366,10.8155331 16.3051538,11.0310614 C16.3051538,11.0310614 16.3057155,11.304064 16.3057155,11.304064 C16.2708889,11.5573764 16.0608061,11.7058515 15.8338716,11.701062 C15.8338716,11.701062 13.1786266,11.7079802 13.1786266,11.7079802 C13.1786266,11.7079802 17.8352759,16.0914548 17.8352759,16.0914548 C18.054908,16.2995328 18.054908,16.6363957 17.8352759,16.8439415 C17.6162056,17.0520195 17.2606376,17.0520195 17.0410055,16.8439415 C17.0410055,16.8439415 12.3500913,12.4695138 12.3500913,12.4695138 C12.3500913,12.4695138 12.3652577,15.0398892 12.3652577,15.0398892 C12.3703132,15.2548854 12.1900014,15.4422088 11.9636287,15.4374193 C11.9636287,15.4374193 11.6574919,15.4368871 11.6574919,15.4368871 C11.4299958,15.4315654 11.2423817,15.3038449 11.2373262,15.0888487 C11.2373262,15.0888487 11.2260918,11.247122 11.2260918,11.247122 C11.2260918,11.2433968 11.2412583,11.240736 11.2412583,11.2370108 C11.2412583,11.2370108 11.2187895,11.042237 11.2187895,11.042237 C11.2165426,10.9342067 11.2429434,10.8378842 11.3170903,10.7687022 Z M6.73908159,11.247122 C6.73908159,11.247122 6.72728549,15.0888487 6.72728549,15.0888487 C6.72223002,15.3038449 6.53461592,15.4315654 6.30711979,15.4368871 C6.30711979,15.4368871 6.01895801,15.4374193 6.01895801,15.4374193 C5.79202359,15.4422088 5.61227356,15.2548854 5.61732903,15.0398892 C5.61732903,15.0398892 5.63249544,12.4445018 5.63249544,12.4445018 C5.63249544,12.4445018 0.958994523,16.8439415 0.958994523,16.8439415 C0.739362449,17.0520195 0.383794411,17.0520195 0.164724056,16.8439415 C-0.0549080185,16.6363957 -0.0549080185,16.2995328 0.164724056,16.0914548 C0.164724056,16.0914548 4.8213734,11.7079802 4.8213734,11.7079802 C4.8213734,11.7079802 2.16612835,11.701062 2.16612835,11.701062 C1.93919393,11.7058515 1.72911108,11.5573764 1.69428451,11.304064 C1.69428451,11.304064 1.69484623,11.0310614 1.69484623,11.0310614 C1.70046342,10.8155331 1.88807752,10.6377887 2.11501194,10.6329992 C2.11501194,10.6329992 6.14309788,10.6494964 6.14309788,10.6494964 C6.14759163,10.6489642 6.15096194,10.6478999 6.15489398,10.6478999 C6.15489398,10.6478999 6.35992136,10.6431104 6.35992136,10.6431104 C6.47338857,10.6404495 6.5756214,10.6824909 6.64808313,10.752205 C6.72166831,10.8213869 6.74806909,10.9177095 6.74582222,11.0257398 C6.74582222,11.0257398 6.72391518,11.2370108 6.72391518,11.2370108 C6.72391518,11.240736 6.73908159,11.2433968 6.73908159,11.247122 Z M6.64808313,6.23089866 C6.5756214,6.30061278 6.47338857,6.34265411 6.35992136,6.33999327 C6.35992136,6.33999327 6.15489398,6.33520375 6.15489398,6.33520375 C6.15096194,6.33520375 6.14759163,6.33413941 6.14309788,6.33360724 C6.14309788,6.33360724 2.11501194,6.35010448 2.11501194,6.35010448 C1.88807752,6.34531496 1.70046342,6.16757057 1.69484623,5.9520422 C1.69484623,5.9520422 1.69428451,5.67903959 1.69428451,5.67903959 C1.72911108,5.42572723 1.93919393,5.27725213 2.16612835,5.28204165 C2.16612835,5.28204165 4.81856481,5.27565562 4.81856481,5.27565562 C4.81856481,5.27565562 0.164724056,0.908146096 0.164724056,0.908146096 C-0.0549080185,0.700600255 -0.0549080185,0.36373739 0.164724056,0.155659381 C0.383794411,-0.0518864602 0.739362449,-0.0518864602 0.958994523,0.155659381 C0.958994523,0.155659381 5.63249544,4.54126265 5.63249544,4.54126265 C5.63249544,4.54126265 5.61732903,1.95971169 5.61732903,1.95971169 C5.61227356,1.74471549 5.79202359,1.55792423 6.01895801,1.56271375 C6.01895801,1.56271375 6.30711979,1.56271375 6.30711979,1.56271375 C6.53461592,1.56803544 6.72223002,1.69575595 6.72728549,1.91075216 C6.72728549,1.91075216 6.73908159,5.75247889 6.73908159,5.75247889 C6.73908159,5.75620407 6.72391518,5.75939708 6.72391518,5.76312227 C6.72391518,5.76312227 6.74582222,5.95789605 6.74582222,5.95789605 C6.74806909,6.06592633 6.72166831,6.16224888 6.64808313,6.23089866 Z" id="path-1"></path>
            </g>
        </g>
    </g>
</svg>