<?xml version="1.0" encoding="UTF-8"?>
<svg width="18px" height="18px" viewBox="0 0 18 18" version="1.1" xmlns="http://www.w3.org/2000/svg" xmlns:xlink="http://www.w3.org/1999/xlink">
    <!-- Generator: Sketch 50.2 (55047) - http://www.bohemiancoding.com/sketch -->
    <title>full screen</title>
    <desc>Created with Sketch.</desc>
    <defs></defs>
    <g id="01" stroke="none" stroke-width="1" fill="none" fill-rule="evenodd">
        <g id="Time-popup" transform="translate(-404.000000, -26.000000)" fill="#1B1B1B">
            <g id="Group-2" transform="translate(7.000000, 7.000000)">
                <g id="full-screen" transform="translate(397.000000, 19.000000)">
                    <path d="M17.992565,0.632557266 C17.992565,0.632557266 17.9813282,4.6988359 17.9813282,4.6988359 C17.9762716,4.92583552 17.788617,5.06158468 17.5610718,5.06721742 C17.5610718,5.06721742 17.2728478,5.06721742 17.2728478,5.06721742 C17.0458644,5.07228689 16.8655137,4.87457754 16.8705703,4.64701465 C16.8705703,4.64701465 16.8863018,1.91738641 16.8863018,1.91738641 C16.8863018,1.91738641 12.0533531,6.73225685 12.0533531,6.73225685 C11.8336736,6.95249718 11.4780288,6.95249718 11.2589112,6.73225685 C11.0392317,6.5125798 11.0392317,6.15602704 11.2589112,5.93578671 C11.2589112,5.93578671 16.0744428,1.13725122 16.0744428,1.13725122 C16.0744428,1.13725122 13.4186246,1.13049193 13.4186246,1.13049193 C13.1916412,1.1355614 12.981513,0.978407811 12.9472407,0.710289148 C12.9472407,0.710289148 12.9472407,0.420766053 12.9472407,0.420766053 C12.9528591,0.193203154 13.1405137,0.00506947052 13.3674971,0 C13.3674971,0 17.3970145,0.0174615096 17.3970145,0.0174615096 C17.4015092,0.0168982351 17.4043184,0.0152084116 17.4082513,0.0152084116 C17.4082513,0.0152084116 17.6138848,0.0107022155 17.6138848,0.0107022155 C17.7273765,0.00788584303 17.8290695,0.0523845287 17.9015469,0.126173489 C17.9757098,0.198835899 18.0021163,0.300788584 17.9998689,0.415133308 C17.9998689,0.415133308 17.9773953,0.621291776 17.9773953,0.621291776 C17.9773953,0.625234698 17.992565,0.628614345 17.992565,0.632557266 Z M1.94247832,16.8627488 C1.94247832,16.8627488 4.59829657,16.8695081 4.59829657,16.8695081 C4.82527997,16.8644386 5.03597002,17.0215922 5.07024227,17.2897109 C5.07024227,17.2897109 5.06968043,17.5792339 5.06968043,17.5792339 C5.06462387,17.8067968 4.87640743,17.9949305 4.64942402,18 C4.64942402,18 0.602489638,17.9825385 0.602489638,17.9825385 C0.598556757,17.9831018 0.595185716,17.9847916 0.591252835,17.9847916 C0.591252835,17.9847916 0.385619352,17.9892978 0.385619352,17.9892978 C0.272689488,17.9926774 0.170434586,17.9476155 0.0979572105,17.8743898 C0.0243561548,17.8011641 -0.00261217089,17.6992114 0.000197029706,17.5848667 C0.000197029706,17.5848667 0.0221087944,17.3787082 0.0221087944,17.3787082 C0.0221087944,17.3747653 0.00693911114,17.3713857 0.00693911114,17.368006 C0.00693911114,17.368006 0.0187377536,13.3017274 0.0187377536,13.3017274 C0.0237943147,13.0741645 0.211448915,12.9384153 0.438432323,12.9333459 C0.438432323,12.9333459 0.744635188,12.9327826 0.744635188,12.9327826 C0.971618596,12.9277131 1.15140743,13.1259857 1.14635087,13.3535486 C1.14635087,13.3535486 1.13118119,16.0679685 1.13118119,16.0679685 C1.13118119,16.0679685 5.9641299,11.2677431 5.9641299,11.2677431 C6.18324754,11.0475028 6.53889234,11.0475028 6.75857183,11.2677431 C6.97768947,11.4874202 6.97768947,11.8445362 6.75857183,12.0642133 C6.75857183,12.0642133 1.94247832,16.8627488 1.94247832,16.8627488 Z M5.9641299,6.73225685 C5.9641299,6.73225685 1.13118119,1.93203154 1.13118119,1.93203154 C1.13118119,1.93203154 1.14635087,4.64701465 1.14635087,4.64701465 C1.15140743,4.87457754 0.971618596,5.07228689 0.744635188,5.06721742 C0.744635188,5.06721742 0.438432323,5.06721742 0.438432323,5.06721742 C0.211448915,5.06158468 0.0237943147,4.92583552 0.0187377536,4.6988359 C0.0187377536,4.6988359 0.00693911114,0.632557266 0.00693911114,0.632557266 C0.00693911114,0.628614345 0.0221087944,0.625234698 0.0221087944,0.621291776 C0.0221087944,0.621291776 0.000197029706,0.415133308 0.000197029706,0.415133308 C-0.00261217089,0.300788584 0.0243561548,0.198835899 0.0979572105,0.126173489 C0.170434586,0.0523845287 0.272689488,0.00788584303 0.385619352,0.0107022155 C0.385619352,0.0107022155 0.591252835,0.0152084116 0.591252835,0.0152084116 C0.595185716,0.0152084116 0.598556757,0.0168982351 0.602489638,0.0174615096 C0.602489638,0.0174615096 4.64942402,0 4.64942402,0 C4.87640743,0.00506947052 5.06462387,0.193203154 5.06968043,0.420766053 C5.06968043,0.420766053 5.07024227,0.710289148 5.07024227,0.710289148 C5.03597002,0.978407811 4.82527997,1.1355614 4.59829657,1.13049193 C4.59829657,1.13049193 1.94247832,1.13725122 1.94247832,1.13725122 C1.94247832,1.13725122 6.75857183,5.93578671 6.75857183,5.93578671 C6.97768947,6.15602704 6.97768947,6.5125798 6.75857183,6.73225685 C6.53889234,6.95249718 6.18324754,6.95249718 5.9641299,6.73225685 Z M12.0533531,11.2677431 C12.0533531,11.2677431 16.8863018,16.0831769 16.8863018,16.0831769 C16.8863018,16.0831769 16.8705703,13.3535486 16.8705703,13.3535486 C16.8655137,13.1259857 17.0458644,12.9277131 17.2728478,12.9327826 C17.2728478,12.9327826 17.5610718,12.9333459 17.5610718,12.9333459 C17.788617,12.9384153 17.9762716,13.0741645 17.9813282,13.3017274 C17.9813282,13.3017274 17.992565,17.368006 17.992565,17.368006 C17.992565,17.3713857 17.9773953,17.3747653 17.9773953,17.3787082 C17.9773953,17.3787082 17.9998689,17.5848667 17.9998689,17.5848667 C18.0021163,17.6992114 17.9757098,17.8011641 17.9015469,17.8743898 C17.8290695,17.9476155 17.7273765,17.9926774 17.6138848,17.9892978 C17.6138848,17.9892978 17.4082513,17.9847916 17.4082513,17.9847916 C17.4043184,17.9847916 17.4015092,17.9831018 17.3970145,17.9825385 C17.3970145,17.9825385 13.3674971,18 13.3674971,18 C13.1405137,17.9949305 12.9528591,17.8067968 12.9472407,17.5792339 C12.9472407,17.5792339 12.9472407,17.2897109 12.9472407,17.2897109 C12.981513,17.0215922 13.1916412,16.8644386 13.4186246,16.8695081 C13.4186246,16.8695081 16.0744428,16.8627488 16.0744428,16.8627488 C16.0744428,16.8627488 11.2589112,12.0642133 11.2589112,12.0642133 C11.0392317,11.8445362 11.0392317,11.4874202 11.2589112,11.2677431 C11.4780288,11.0475028 11.8336736,11.0475028 12.0533531,11.2677431 Z" id="path-1"></path>
                </g>
            </g>
        </g>
    </g>
</svg>