<svg version="1.2" xmlns="http://www.w3.org/2000/svg" viewBox="0 0 206 115" width="206" height="115">
	<title>userinyerface-logo-svg</title>
	<style>
		tspan { white-space:pre } 
		.s0 { fill: #ffffff } 
		.t1 { font-size: 17px;fill: #ffffff;font-weight: 400;font-family: "DejaVuSans", "DejaVu Sans" } 
	</style>
	<g id="Layer">
		<g id="Layer">
			<g id="Layer" style="opacity: .2">
				<path id="Layer" class="s0" d="m60.8 4.1v41.5c0 3.4 0.7 6.1 2.2 8.1 1.5 2 3.9 2.9 7.2 2.9 3.3 0 5.8-1 7.4-2.9 1.6-2 2.4-4.6 2.4-8.1v-41.5h23v41.5c0 7-1.4 13-4.4 17.9-3 4.9-6.9 8.7-11.9 11.2-5.1 2.5-10.7 3.7-17 3.7-6.3 0-11.7-1.2-16.6-3.7-4.8-2.5-8.6-6.2-11.3-11.2-2.7-4.9-4-10.9-4-18v-41.5z"/>
				<path id="Layer" class="s0" d="m136.2 4.1v73.7h-23.1v-73.7z"/>
			</g>
			<g id="Layer" style="opacity: .2">
				<path id="Layer" class="s0" d="m66.7 4.1v41.5c0 3.4 0.7 6.1 2.2 8.1 1.5 2 3.9 2.9 7.2 2.9 3.3 0 5.8-1 7.4-2.9 1.6-2 2.4-4.6 2.4-8.1v-41.5h23v41.5c0 7-1.4 13-4.4 17.9-2.9 5-6.9 8.7-11.9 11.2-5.1 2.5-10.7 3.7-17 3.7-6.3 0-11.7-1.2-16.6-3.7-4.8-2.5-8.6-6.2-11.3-11.2-2.7-4.9-4-10.9-4-18v-41.5z"/>
				<path id="Layer" class="s0" d="m142 4.1v73.7h-23.1v-73.7z"/>
			</g>
			<g id="Layer" style="opacity: .2">
				<path id="Layer" class="s0" d="m73.6 4.1v41.5c0 3.4 0.7 6.1 2.2 8.1 1.5 2 3.9 2.9 7.2 2.9 3.3 0 5.8-1 7.4-2.9 1.6-2 2.4-4.6 2.4-8.1v-41.5h23v41.5c0 7-1.4 13-4.4 17.9-2.9 5-6.9 8.7-11.9 11.2-5.1 2.5-10.7 3.7-17 3.7-6.3 0-11.7-1.2-16.6-3.7-4.8-2.5-8.6-6.2-11.3-11.2-2.7-4.9-4-10.9-4-18v-41.5z"/>
				<path id="Layer" class="s0" d="m148.9 4.1v73.7h-23.1v-73.7z"/>
			</g>
			<g id="Layer">
				<path id="Layer" class="s0" d="m81.1 4.1v41.5c0 3.4 0.7 6.1 2.2 8.1 1.5 2 3.9 2.9 7.2 2.9 3.3 0 5.8-1 7.4-2.9 1.6-2 2.4-4.6 2.4-8.1v-41.5h23v41.5c0 7-1.4 13-4.4 17.9-2.9 5-6.9 8.7-11.9 11.2-5.1 2.5-10.7 3.7-17 3.7-6.3 0-11.7-1.2-16.6-3.7-4.8-2.5-8.6-6.2-11.3-11.2-2.7-4.9-4-10.9-4-18v-41.5z"/>
				<path id="Layer" class="s0" d="m156.4 4.1v73.7h-23.1v-73.7z"/>
			</g>
		</g>
	</g>
	<text id="User Interface Test" style="transform: matrix(1,0,0,1,103,105)" >
		<tspan x="-79.6" y="0" class="t1">U</tspan><tspan  y="0" class="t1">s</tspan><tspan  y="0" class="t1">e</tspan><tspan  y="0" class="t1">r</tspan><tspan  y="0" class="t1"> </tspan><tspan  y="0" class="t1">I</tspan><tspan  y="0" class="t1">n</tspan><tspan  y="0" class="t1">t</tspan><tspan  y="0" class="t1">e</tspan><tspan  y="0" class="t1">r</tspan><tspan  y="0" class="t1">f</tspan><tspan  y="0" class="t1">a</tspan><tspan  y="0" class="t1">c</tspan><tspan  y="0" class="t1">e</tspan><tspan  y="0" class="t1"> </tspan><tspan  y="0" class="t1">T</tspan><tspan  y="0" class="t1">e</tspan><tspan  y="0" class="t1">s</tspan><tspan  y="0" class="t1">t</tspan><tspan  y="0" class="t1">
</tspan>
	</text>
</svg>